<?xml version="1.0" encoding="UTF-8"?>
<!DOCTYPE svg PUBLIC "-//W3C//DTD SVG 1.1//EN" "http://www.w3.org/Graphics/SVG/1.1/DTD/svg11.dtd">
<!-- Creator: CorelDRAW -->
<svg xmlns="http://www.w3.org/2000/svg" xml:space="preserve" width="122.072mm" height="47.9186mm" version="1.1" style="shape-rendering:geometricPrecision; text-rendering:geometricPrecision; image-rendering:optimizeQuality; fill-rule:evenodd; clip-rule:evenodd"
viewBox="0 0 5504.46 2160.75"
 xmlns:xlink="http://www.w3.org/1999/xlink"
 xmlns:xodm="http://www.corel.com/coreldraw/odm/2003">
 <defs>
  <style type="text/css">
   <![CDATA[
    .fil1 {fill:#ED3237;fill-rule:nonzero}
    .fil0 {fill:#2F3E5D;fill-rule:nonzero}
   ]]>
  </style>
 </defs>
 <g id="Слой_x0020_1">
  <metadata id="CorelCorpID_0Corel-Layer"/>
  <path class="fil0" d="M1191.25 1492.66l0 -448.5 -163.27 0 0 -50.65 381.08 0 0 50.65 -161.83 0 0 448.5 -55.98 0zm330.54 -279.9l253.91 0 0 48.65 -253.91 0 0 181.27 264.68 0 0 49.98 -319.99 0 0 -499.15 321.21 0 0 49.31 -265.9 0 0 169.94zm666.32 113.29l53.98 0c0,44.32 -5.67,78.75 -17.11,103.18 -11.33,24.44 -31.21,42.1 -59.53,52.76 -28.33,10.66 -68.64,15.99 -121.18,15.99 -39.76,0 -72.08,-3.44 -96.74,-10.44 -24.77,-7 -44.65,-19.44 -59.65,-37.21 -14.99,-17.77 -25.88,-43.21 -32.66,-76.19 -6.77,-32.88 -10.22,-76.08 -10.22,-129.4 0,-53.2 3.33,-96.3 10,-129.51 6.66,-33.21 17.55,-58.98 32.66,-77.41 15.22,-18.44 35.21,-31.32 60.09,-38.65 24.88,-7.33 57.09,-11 96.52,-11 39.43,0 71.31,3.22 95.85,9.56 24.44,6.44 43.32,16.22 56.65,29.54 13.22,13.22 22.55,29.54 27.88,49.2 5.44,19.55 9,44.76 10.78,75.64l-53.87 -0.67c-3.44,-32.76 -8.33,-56.75 -14.66,-71.75 -6.33,-14.99 -18.66,-25.88 -36.88,-32.66 -18.22,-6.77 -46.76,-10.22 -85.75,-10.22 -29.43,0 -53.2,2.89 -71.31,8.67 -17.99,5.88 -32.32,16.1 -42.87,30.99 -10.55,14.77 -17.99,35.54 -22.43,62.31 -4.45,26.77 -6.66,62.09 -6.66,105.96 0,44.32 2.22,79.53 6.55,105.63 4.33,26.1 11.77,46.32 22.21,60.87 10.56,14.55 24.77,24.54 42.77,29.99 17.99,5.44 41.99,8.11 71.75,8.11 30.21,0 54.53,-1.89 72.97,-5.67 18.55,-3.67 32.88,-10.11 43.21,-19.1 10.33,-9 17.44,-21.22 21.55,-36.77 4.11,-15.55 6.11,-36.21 6.11,-61.75zm174.16 -111.96l291.89 0 0 -219.92 55.31 0 0 498.48 -55.31 0 0 -229.92 -291.89 0 0 229.92 -55.31 0 0 -498.48 55.31 0 0 219.92zm871.02 -220.59l0 499.15 -87.86 0 -281.34 -451.17 0 451.17 -55.31 0 0 -499.15 87.97 0 281.23 455.84 0 -455.84 55.31 0zm74.64 249.91c0,54.76 3.11,98.3 9.44,130.73 6.33,32.43 17.1,57.65 32.32,75.64 15.33,18.1 36.1,30.55 62.42,37.65 26.32,7 61.31,10.55 104.96,10.55 44.1,0 79.42,-3.55 105.96,-10.55 26.55,-7.11 47.43,-19.55 62.53,-37.43 15.11,-17.88 25.77,-43.21 32.1,-75.86 6.33,-32.55 9.44,-76.2 9.44,-130.73 0,-54.87 -3.11,-98.63 -9.22,-131.4 -6.22,-32.66 -16.88,-57.98 -32.1,-75.97 -15.21,-17.88 -35.88,-30.43 -62.09,-37.43 -26.1,-7 -61.31,-10.44 -105.29,-10.44 -44.32,0 -79.75,3.45 -106.18,10.44 -26.32,7 -47.21,19.55 -62.43,37.54 -15.21,18 -25.99,43.32 -32.32,75.86 -6.33,32.43 -9.55,76.3 -9.55,131.4zm55.98 0c0,-48.2 1.66,-84.97 5,-110.52 3.45,-25.44 10.22,-45.32 20.44,-59.42 10.22,-14.22 25.1,-23.88 44.54,-28.99 19.55,-5.11 47.43,-7.67 83.86,-7.67 36.1,0 63.98,2.56 83.42,7.67 19.43,5.11 34.32,14.77 44.42,28.88 10.22,14.1 17,33.99 20.33,59.54 3.45,25.44 5.11,62.31 5.11,110.52 0,47.76 -1.78,84.3 -5.22,109.74 -3.44,25.44 -10.33,45.2 -20.44,59.31 -10.11,14.1 -24.99,23.77 -44.76,28.99 -19.66,5.33 -47.2,7.89 -82.86,7.89 -35.43,0 -62.98,-2.56 -82.75,-7.89 -19.77,-5.22 -34.77,-14.88 -44.98,-29.1 -10.22,-14.1 -17.22,-34.1 -20.77,-59.76 -3.55,-25.77 -5.33,-62.09 -5.33,-109.18zm496.49 -249.91l0 448.5 251.91 0 0 50.65 -307.89 0 0 -499.15 55.98 0zm294.56 249.91c0,54.76 3.11,98.3 9.44,130.73 6.33,32.43 17.1,57.65 32.32,75.64 15.33,18.1 36.1,30.55 62.42,37.65 26.32,7 61.31,10.55 104.96,10.55 44.1,0 79.42,-3.55 105.96,-10.55 26.55,-7.11 47.43,-19.55 62.53,-37.43 15.11,-17.88 25.77,-43.21 32.1,-75.86 6.33,-32.55 9.44,-76.2 9.44,-130.73 0,-54.87 -3.11,-98.63 -9.22,-131.4 -6.22,-32.66 -16.88,-57.98 -32.1,-75.97 -15.21,-17.88 -35.88,-30.43 -62.09,-37.43 -26.1,-7 -61.31,-10.44 -105.29,-10.44 -44.32,0 -79.75,3.45 -106.18,10.44 -26.32,7 -47.21,19.55 -62.43,37.54 -15.21,18 -25.99,43.32 -32.32,75.86 -6.33,32.43 -9.55,76.3 -9.55,131.4zm55.98 0c0,-48.2 1.66,-84.97 5,-110.52 3.45,-25.44 10.22,-45.32 20.44,-59.42 10.22,-14.22 25.1,-23.88 44.54,-28.99 19.55,-5.11 47.43,-7.67 83.86,-7.67 36.1,0 63.98,2.56 83.42,7.67 19.43,5.11 34.32,14.77 44.42,28.88 10.22,14.1 17,33.99 20.33,59.54 3.45,25.44 5.11,62.31 5.11,110.52 0,47.76 -1.78,84.3 -5.22,109.74 -3.44,25.44 -10.33,45.2 -20.44,59.31 -10.11,14.1 -24.99,23.77 -44.76,28.99 -19.66,5.33 -47.2,7.89 -82.86,7.89 -35.43,0 -62.98,-2.56 -82.75,-7.89 -19.77,-5.22 -34.77,-14.88 -44.98,-29.1 -10.22,-14.1 -17.22,-34.1 -20.77,-59.76 -3.55,-25.77 -5.33,-62.09 -5.33,-109.18zm627.66 -205.93c-31.1,0 -55.98,2.89 -74.64,8.66 -18.66,5.67 -33.43,15.99 -44.32,30.66 -10.77,14.77 -18.55,35.43 -23.21,61.97 -4.67,26.66 -7,61.87 -7,105.96 0,43.99 2.33,79.2 6.89,105.41 4.67,26.32 12.44,46.65 23.33,61.09 11,14.44 25.88,24.44 44.65,29.88 18.77,5.44 43.54,8.22 74.31,8.22 40.87,0 71.97,-4.55 93.19,-13.78 21.22,-9.22 35.88,-24.66 43.98,-46.21 8.11,-21.66 12.22,-52.64 12.22,-93.19l0 -18.1 -159.94 0 0 -47.98 215.92 0 0 58.09c0,43.21 -3.33,78.31 -9.99,105.19 -6.66,26.88 -17.66,47.98 -32.88,63.09 -15.11,15.11 -35.77,25.77 -61.65,32.1 -25.99,6.33 -59.42,9.44 -100.19,9.44 -42.1,0 -76.3,-4.22 -102.85,-12.55 -26.43,-8.33 -47.09,-21.99 -62.09,-40.98 -14.88,-18.99 -25.44,-44.43 -31.65,-76.42 -6.11,-31.99 -9.22,-73.09 -9.22,-123.29 0,-49.98 3.22,-91.19 9.55,-123.51 6.33,-32.32 17,-58.2 32.21,-77.53 15.11,-19.43 35.77,-33.43 61.87,-41.98 26.1,-8.55 59.98,-12.89 101.52,-12.89 56.87,0 99.3,5.11 127.29,15.33 27.99,10.33 46.76,25.66 56.54,46.1 9.77,20.44 16.33,50.43 19.55,89.85l-53.98 0c-2.11,-28.99 -6.89,-50.43 -14.44,-64.53 -7.55,-14 -21.33,-23.88 -41.43,-29.54 -20.1,-5.67 -51.31,-8.55 -93.52,-8.55zm665.86 -43.98l-188.6 290.56 0 208.59 -55.98 0 0 -208.59 -183.27 -290.56 61.97 0 151.39 238.47 151.05 -238.47 63.42 0z"/>
  <path class="fil1" d="M0.31 1246.7l-0.31 295.2c0.06,55.59 29.55,106.88 77.53,134.66l800.54 463.32c48.19,27.82 107.41,27.75 155.53,0.14l257.28 -148.21 -1290.57 -745.11z"/>
  <path class="fil0" d="M552.5 209.72l-473.65 272.82c-48.09,27.71 -77.93,78.84 -77.86,134.43l-0.28 262.24 863.61 498.61 -311.81 -1168.1z"/>
  <path class="fil1" d="M1836.27 484.14l-800.54 -463.32c-47.96,-27.68 -107.38,-27.81 -155.28,0l-65.4 37.67 169.37 677.76 929.38 -103.54 0.01 -13.91c0.17,-55.46 -29.45,-106.66 -77.54,-134.67z"/>
 </g>
</svg>
