<?xml version="1.0" encoding="UTF-8"?>
<!DOCTYPE svg PUBLIC "-//W3C//DTD SVG 1.1//EN" "http://www.w3.org/Graphics/SVG/1.1/DTD/svg11.dtd">
<!-- Creator: CorelDRAW -->
<svg xmlns="http://www.w3.org/2000/svg" xml:space="preserve" width="60.0877mm" height="47.9186mm" version="1.1" style="shape-rendering:geometricPrecision; text-rendering:geometricPrecision; image-rendering:optimizeQuality; fill-rule:evenodd; clip-rule:evenodd"
viewBox="0 0 1333.69 1063.59"
 xmlns:xlink="http://www.w3.org/1999/xlink"
 xmlns:xodm="http://www.corel.com/coreldraw/odm/2003">
 <defs>
  <style type="text/css">
   <![CDATA[
    .fil1 {fill:#ED3237;fill-rule:nonzero}
    .fil0 {fill:#2F3E5D;fill-rule:nonzero}
   ]]>
  </style>
 </defs>
 <g id="Слой_x0020_1">
  <metadata id="CorelCorpID_0Corel-Layer"/>
  <path class="fil0" d="M586.38 734.74l0 -220.77 -80.37 0 0 -24.93 187.58 0 0 24.93 -79.66 0 0 220.77 -27.55 0zm162.7 -137.78l124.98 0 0 23.95 -124.98 0 0 89.23 130.28 0 0 24.6 -157.51 0 0 -245.7 158.11 0 0 24.27 -130.89 0 0 83.65zm327.98 55.77l26.57 0c0,21.81 -2.79,38.76 -8.42,50.79 -5.58,12.03 -15.36,20.72 -29.3,25.97 -13.94,5.25 -33.79,7.87 -59.65,7.87 -19.57,0 -35.48,-1.69 -47.62,-5.14 -12.19,-3.44 -21.98,-9.57 -29.36,-18.32 -7.38,-8.75 -12.74,-21.27 -16.07,-37.5 -3.33,-16.18 -5.03,-37.45 -5.03,-63.7 0,-26.19 1.64,-47.4 4.92,-63.75 3.28,-16.35 8.64,-29.03 16.07,-38.11 7.49,-9.08 17.33,-15.42 29.58,-19.03 12.25,-3.61 28.1,-5.41 47.51,-5.41 19.41,0 35.1,1.59 47.18,4.7 12.03,3.17 21.32,7.98 27.88,14.54 6.51,6.51 11.1,14.54 13.72,24.22 2.68,9.62 4.43,22.03 5.3,37.23l-26.52 -0.33c-1.69,-16.13 -4.1,-27.94 -7.22,-35.32 -3.12,-7.38 -9.18,-12.74 -18.15,-16.07 -8.97,-3.33 -23.02,-5.03 -42.21,-5.03 -14.49,0 -26.19,1.42 -35.1,4.27 -8.86,2.9 -15.91,7.93 -21.1,15.25 -5.19,7.27 -8.86,17.49 -11.04,30.67 -2.19,13.18 -3.28,30.56 -3.28,52.16 0,21.82 1.09,39.15 3.23,51.99 2.13,12.85 5.8,22.8 10.93,29.96 5.2,7.16 12.19,12.08 21.05,14.76 8.86,2.68 20.67,3.99 35.32,3.99 14.87,0 26.84,-0.93 35.92,-2.79 9.13,-1.8 16.18,-4.97 21.27,-9.4 5.09,-4.43 8.58,-10.44 10.61,-18.1 2.02,-7.65 3.01,-17.82 3.01,-30.4zm85.73 -55.11l143.68 0 0 -108.25 27.23 0 0 245.37 -27.23 0 0 -113.17 -143.68 0 0 113.17 -27.23 0 0 -245.37 27.23 0 0 108.25z"/>
  <path class="fil1" d="M0.15 613.67l-0.15 145.31c0.03,27.37 14.55,52.61 38.16,66.29l394.05 228.06c23.72,13.69 52.87,13.66 76.56,0.07l126.64 -72.96 -635.26 -366.77z"/>
  <path class="fil0" d="M271.96 103.23l-233.15 134.29c-23.67,13.64 -38.36,38.81 -38.33,66.17l-0.14 129.08 425.1 245.43 -153.48 -574.98z"/>
  <path class="fil1" d="M903.87 238.31l-394.05 -228.06c-23.61,-13.63 -52.86,-13.69 -76.44,0l-32.19 18.54 83.37 333.62 457.47 -50.96 0.01 -6.85c0.08,-27.3 -14.49,-52.5 -38.17,-66.29z"/>
 </g>
</svg>
