<?xml version="1.0" encoding="UTF-8"?>
<!DOCTYPE svg PUBLIC "-//W3C//DTD SVG 1.1//EN" "http://www.w3.org/Graphics/SVG/1.1/DTD/svg11.dtd">
<!-- Creator: CorelDRAW -->
<svg xmlns="http://www.w3.org/2000/svg" xml:space="preserve" width="30.1439mm" height="24.0393mm" version="1.1" style="shape-rendering:geometricPrecision; text-rendering:geometricPrecision; image-rendering:optimizeQuality; fill-rule:evenodd; clip-rule:evenodd"
viewBox="0 0 372.98 297.45"
 xmlns:xlink="http://www.w3.org/1999/xlink"
 xmlns:xodm="http://www.corel.com/coreldraw/odm/2003">
 <defs>
  <style type="text/css">
   <![CDATA[
    .fil0 {fill:#FEFEFE;fill-rule:nonzero}
    .fil1 {fill:#ED3237;fill-rule:nonzero}
   ]]>
  </style>
 </defs>
 <g id="Слой_x0020_1">
  <metadata id="CorelCorpID_0Corel-Layer"/>
  <path class="fil0" d="M163.99 205.48l0 -61.74 -22.48 0 0 -6.97 52.46 0 0 6.97 -22.28 0 0 61.74 -7.71 0zm45.5 -38.53l34.95 0 0 6.7 -34.95 0 0 24.95 36.43 0 0 6.88 -44.05 0 0 -68.71 44.22 0 0 6.79 -36.6 0 0 23.39zm91.72 15.6l7.43 0c0,6.1 -0.78,10.84 -2.35,14.2 -1.56,3.36 -4.3,5.79 -8.19,7.26 -3.9,1.47 -9.45,2.2 -16.68,2.2 -5.47,0 -9.92,-0.47 -13.32,-1.44 -3.41,-0.96 -6.15,-2.68 -8.21,-5.12 -2.06,-2.45 -3.56,-5.95 -4.5,-10.49 -0.93,-4.53 -1.41,-10.47 -1.41,-17.81 0,-7.32 0.46,-13.26 1.38,-17.83 0.92,-4.57 2.42,-8.12 4.5,-10.66 2.09,-2.54 4.85,-4.31 8.27,-5.32 3.42,-1.01 7.86,-1.51 13.29,-1.51 5.43,0 9.82,0.44 13.2,1.31 3.36,0.89 5.96,2.23 7.8,4.07 1.82,1.82 3.1,4.07 3.84,6.77 0.75,2.69 1.24,6.16 1.48,10.41l-7.42 -0.09c-0.47,-4.51 -1.15,-7.81 -2.02,-9.88 -0.87,-2.07 -2.57,-3.56 -5.08,-4.5 -2.51,-0.93 -6.44,-1.41 -11.8,-1.41 -4.05,0 -7.32,0.4 -9.82,1.19 -2.48,0.81 -4.45,2.22 -5.9,4.27 -1.45,2.03 -2.48,4.89 -3.09,8.58 -0.61,3.68 -0.92,8.55 -0.92,14.59 0,6.1 0.31,10.95 0.9,14.54 0.6,3.59 1.62,6.38 3.06,8.38 1.45,2 3.41,3.38 5.89,4.13 2.48,0.75 5.78,1.12 9.88,1.12 4.16,0 7.51,-0.26 10.05,-0.78 2.55,-0.5 4.53,-1.39 5.95,-2.63 1.42,-1.24 2.4,-2.92 2.97,-5.06 0.57,-2.14 0.84,-4.98 0.84,-8.5zm23.97 -15.41l40.18 0 0 -30.27 7.61 0 0 68.62 -7.61 0 0 -31.65 -40.18 0 0 31.65 -7.61 0 0 -68.62 7.61 0 0 30.27z"/>
  <path class="fil1" d="M0.04 171.62l-0.04 40.64c0.01,7.65 4.07,14.71 10.67,18.54l110.2 63.78c6.63,3.83 14.79,3.82 21.41,0.02l35.42 -20.4 -177.66 -102.57z"/>
  <path class="fil0" d="M76.06 28.87l-65.2 37.56c-6.62,3.81 -10.73,10.85 -10.72,18.51l-0.04 36.1 118.88 68.64 -42.92 -160.8z"/>
  <path class="fil1" d="M252.78 66.65l-110.2 -63.78c-6.6,-3.81 -14.78,-3.83 -21.38,0l-9 5.19 23.31 93.3 127.94 -14.25 0 -1.91c0.02,-7.63 -4.05,-14.68 -10.67,-18.54z"/>
 </g>
</svg>
